<svg width="100" height="100" viewBox="0 0 100 100" fill="none" xmlns="http://www.w3.org/2000/svg">
<circle cx="50" cy="50" r="40" fill="#158384"/>
<circle cx="50" cy="50" r="48.5" stroke="#158384" stroke-width="3" stroke-dasharray="10 10"/>
<path d="M54.1667 66.5833C62.023 66.5833 65.9522 66.5833 68.3917 64.1417C70.8313 61.7 70.8334 57.7729 70.8334 49.9167C70.8334 42.0604 70.8334 38.1312 68.3917 35.6917C65.9501 33.2521 62.023 33.25 54.1667 33.25H45.8334C37.9772 33.25 34.048 33.25 31.6084 35.6917C29.1688 38.1333 29.1667 42.0604 29.1667 49.9167C29.1667 57.7729 29.1667 61.7021 31.6084 64.1417C32.9688 65.5042 34.7917 66.1063 37.5001 66.3708" stroke="white" stroke-width="3" stroke-linecap="round" stroke-linejoin="round"/>
<path d="M43.75 49.9167L48.4375 54.0833L56.25 45.75" stroke="white" stroke-width="3" stroke-linecap="round" stroke-linejoin="round"/>
<path d="M54.1667 66.583C51.5917 66.583 48.7542 67.6247 46.1646 68.9684C42.0021 71.1288 39.9208 72.2101 38.8958 71.5205C37.8708 70.8309 38.0646 68.6976 38.4542 64.4288L38.5417 63.458" stroke="white" stroke-width="3" stroke-linecap="round"/>
</svg>
