<svg width="64" height="64" viewBox="0 0 64 64" fill="none" xmlns="http://www.w3.org/2000/svg">
<rect width="64" height="64" rx="16" fill="white" fill-opacity="0.05"/>
<path d="M40 33.0004C40 38.0004 36.5 40.5005 32.34 41.9505C32.1222 42.0243 31.8855 42.0207 31.67 41.9405C27.5 40.5005 24 38.0004 24 33.0004V26.0004C24 25.7352 24.1054 25.4809 24.2929 25.2933C24.4804 25.1058 24.7348 25.0004 25 25.0004C27 25.0004 29.5 23.8004 31.24 22.2804C31.4519 22.0994 31.7214 22 32 22C32.2786 22 32.5481 22.0994 32.76 22.2804C34.51 23.8104 37 25.0004 39 25.0004C39.2652 25.0004 39.5196 25.1058 39.7071 25.2933C39.8946 25.4809 40 25.7352 40 26.0004V33.0004Z" stroke="#158384" stroke-width="2" stroke-linecap="round" stroke-linejoin="round"/>
<path d="M29 32L31 34L35 30" stroke="#158384" stroke-width="2" stroke-linecap="round" stroke-linejoin="round"/>
</svg>
