<svg width="100" height="100" viewBox="0 0 100 100" fill="none" xmlns="http://www.w3.org/2000/svg">
<circle cx="50" cy="50" r="40" fill="#158384"/>
<circle cx="50" cy="50" r="48.5" stroke="#158384" stroke-width="3" stroke-dasharray="10 10"/>
<path d="M45.8334 54.1667L68.75 31.25M45.8334 54.1667L53.125 68.75C53.2164 68.9495 53.3632 69.1185 53.5478 69.237C53.7325 69.3555 53.9473 69.4185 54.1667 69.4185C54.3861 69.4185 54.6009 69.3555 54.7856 69.237C54.9702 69.1185 55.117 68.9495 55.2084 68.75L68.75 31.25M45.8334 54.1667L31.25 46.875C31.0506 46.7836 30.8815 46.6368 30.763 46.4522C30.6445 46.2675 30.5815 46.0527 30.5815 45.8333C30.5815 45.6139 30.6445 45.3991 30.763 45.2145C30.8815 45.0298 31.0506 44.8831 31.25 44.7917L68.75 31.25" stroke="white" stroke-width="2" stroke-linecap="round" stroke-linejoin="round"/>
</svg>
