<svg width="100" height="100" viewBox="0 0 100 100" fill="none" xmlns="http://www.w3.org/2000/svg">
<circle cx="50" cy="50" r="40" fill="#158384"/>
<circle cx="50" cy="50" r="48.5" stroke="#158384" stroke-width="3" stroke-dasharray="10 10"/>
<path d="M70.3125 50.0001H57.8125C57.3981 50.0001 57.0007 50.1647 56.7076 50.4577C56.4146 50.7507 56.25 51.1482 56.25 51.5626C56.25 55.0094 53.4469 57.8126 50 57.8126C46.5531 57.8126 43.75 55.0094 43.75 51.5626C43.75 51.1482 43.5854 50.7507 43.2924 50.4577C42.9993 50.1647 42.6019 50.0001 42.1875 50.0001H29.6875C29.2731 50.0001 28.8757 50.1647 28.5826 50.4577C28.2896 50.7507 28.125 51.1482 28.125 51.5626V64.0626C28.125 68.3688 31.6281 71.8751 35.9375 71.8751H64.0625C68.3719 71.8751 71.875 68.3688 71.875 64.0626V51.5626C71.875 51.1482 71.7104 50.7507 71.4174 50.4577C71.1243 50.1647 70.7269 50.0001 70.3125 50.0001ZM68.75 64.0626C68.75 66.6469 66.6469 68.7501 64.0625 68.7501H35.9375C33.3531 68.7501 31.25 66.6469 31.25 64.0626V53.1251H40.7562C41.1284 55.3082 42.2602 57.2896 43.9517 58.7191C45.6431 60.1487 47.7854 60.9344 50 60.9376C52.2146 60.9344 54.3569 60.1487 56.0483 58.7191C57.7398 57.2896 58.8716 55.3082 59.2438 53.1251H68.75V64.0626ZM42.6437 37.0438C42.3508 36.7508 42.1863 36.3534 42.1863 35.9391C42.1863 35.5248 42.3508 35.1274 42.6437 34.8344L48.8937 28.5844C49.1868 28.2915 49.5841 28.127 49.9984 28.127C50.4128 28.127 50.8101 28.2915 51.1031 28.5844L57.3531 34.8344C57.6461 35.1278 57.8105 35.5256 57.8102 35.9402C57.81 36.3549 57.645 36.7524 57.3516 37.0454C57.0582 37.3384 56.6604 37.5028 56.2458 37.5025C55.8311 37.5022 55.4336 37.3372 55.1406 37.0438L51.5594 33.4626V35.9407C51.5594 36.3551 51.3948 36.7525 51.1017 37.0455C50.8087 37.3386 50.4113 37.5032 49.9969 37.5032C49.5825 37.5032 49.185 37.3386 48.892 37.0455C48.599 36.7525 48.4344 36.3551 48.4344 35.9407V33.4626L44.8531 37.0438C44.5601 37.3367 44.1628 37.5013 43.7484 37.5013C43.3341 37.5013 42.9368 37.3367 42.6437 37.0438ZM51.5625 42.1876C51.5625 42.602 51.3979 42.9994 51.1049 43.2924C50.8118 43.5854 50.4144 43.7501 50 43.7501C49.5856 43.7501 49.1882 43.5854 48.8951 43.2924C48.6021 42.9994 48.4375 42.602 48.4375 42.1876C48.4375 41.7732 48.6021 41.3757 48.8951 41.0827C49.1882 40.7897 49.5856 40.6251 50 40.6251C50.4144 40.6251 50.8118 40.7897 51.1049 41.0827C51.3979 41.3757 51.5625 41.7732 51.5625 42.1876ZM51.5625 48.4376C51.5625 48.852 51.3979 49.2494 51.1049 49.5424C50.8118 49.8354 50.4144 50.0001 50 50.0001C49.5856 50.0001 49.1882 49.8354 48.8951 49.5424C48.6021 49.2494 48.4375 48.852 48.4375 48.4376C48.4375 48.0232 48.6021 47.6257 48.8951 47.3327C49.1882 47.0397 49.5856 46.8751 50 46.8751C50.4144 46.8751 50.8118 47.0397 51.1049 47.3327C51.3979 47.6257 51.5625 48.0232 51.5625 48.4376Z" fill="white"/>
</svg>
