<svg width="64" height="64" viewBox="0 0 64 64" fill="none" xmlns="http://www.w3.org/2000/svg">
<rect width="64" height="64" rx="16" fill="white" fill-opacity="0.05"/>
<path d="M30 34.6602V36.2862C29.9962 36.6288 29.9045 36.9647 29.7336 37.2617C29.5627 37.5586 29.3183 37.8067 29.024 37.9822C28.3991 38.445 27.8908 39.0471 27.5395 39.7408C27.1881 40.4345 27.0034 41.2006 27 41.9782" stroke="#158384" stroke-width="2" stroke-linecap="round" stroke-linejoin="round"/>
<path d="M34 34.6602V36.2862C34.0038 36.6288 34.0955 36.9647 34.2664 37.2617C34.4373 37.5586 34.6817 37.8067 34.976 37.9822C35.6009 38.445 36.1092 39.0471 36.4605 39.7408C36.8119 40.4345 36.9966 41.2006 37 41.9782" stroke="#158384" stroke-width="2" stroke-linecap="round" stroke-linejoin="round"/>
<path d="M38 29H39.5C40.163 29 40.7989 28.7366 41.2678 28.2678C41.7366 27.7989 42 27.163 42 26.5C42 25.837 41.7366 25.2011 41.2678 24.7322C40.7989 24.2634 40.163 24 39.5 24H38" stroke="#158384" stroke-width="2" stroke-linecap="round" stroke-linejoin="round"/>
<path d="M24 42H40" stroke="#158384" stroke-width="2" stroke-linecap="round" stroke-linejoin="round"/>
<path d="M26 29C26 30.5913 26.6321 32.1174 27.7574 33.2426C28.8826 34.3679 30.4087 35 32 35C33.5913 35 35.1174 34.3679 36.2426 33.2426C37.3679 32.1174 38 30.5913 38 29V23C38 22.7348 37.8946 22.4804 37.7071 22.2929C37.5196 22.1054 37.2652 22 37 22H27C26.7348 22 26.4804 22.1054 26.2929 22.2929C26.1054 22.4804 26 22.7348 26 23V29Z" stroke="#158384" stroke-width="2" stroke-linecap="round" stroke-linejoin="round"/>
<path d="M26 29H24.5C23.837 29 23.2011 28.7366 22.7322 28.2678C22.2634 27.7989 22 27.163 22 26.5C22 25.837 22.2634 25.2011 22.7322 24.7322C23.2011 24.2634 23.837 24 24.5 24H26" stroke="#158384" stroke-width="2" stroke-linecap="round" stroke-linejoin="round"/>
</svg>
