<svg width="100" height="100" viewBox="0 0 100 100" fill="none" xmlns="http://www.w3.org/2000/svg">
<circle cx="50" cy="50" r="40" fill="#158384"/>
<circle cx="50" cy="50" r="48.5" stroke="#158384" stroke-width="3" stroke-dasharray="10 10"/>
<path d="M65.1563 39.5312L54.2188 28.5937C53.9063 28.2812 53.5938 28.125 53.125 28.125H37.5C35.7812 28.125 34.375 29.5312 34.375 31.25V68.75C34.375 70.4688 35.7812 71.875 37.5 71.875H62.5C64.2188 71.875 65.625 70.4688 65.625 68.75V40.625C65.625 40.1562 65.4688 39.8438 65.1563 39.5312ZM53.125 31.875L61.875 40.625H53.125V31.875ZM62.5 68.75H37.5V31.25H50V40.625C50 42.3438 51.4062 43.75 53.125 43.75H62.5V68.75Z" fill="white"/>
<path d="M40.625 59.375H59.375V62.5H40.625V59.375ZM40.625 50H59.375V53.125H40.625V50Z" fill="white"/>
</svg>
