<svg width="100" height="100" viewBox="0 0 100 100" fill="none" xmlns="http://www.w3.org/2000/svg">
<circle cx="50" cy="50" r="40" fill="#158384"/>
<circle cx="50" cy="50" r="48.5" stroke="#158384" stroke-width="3" stroke-dasharray="10 10"/>
<path fill-rule="evenodd" clip-rule="evenodd" d="M50 33.3337C46.1323 33.3337 42.4229 34.8701 39.688 37.605C36.9531 40.3399 35.4167 44.0493 35.4167 47.917V52.0837C35.4167 52.6362 35.1972 53.1661 34.8065 53.5568C34.4158 53.9475 33.8859 54.167 33.3333 54.167C32.7808 54.167 32.2509 53.9475 31.8602 53.5568C31.4695 53.1661 31.25 52.6362 31.25 52.0837V47.917C31.25 42.9442 33.2254 38.175 36.7417 34.6587C40.2581 31.1424 45.0272 29.167 50 29.167C54.9728 29.167 59.7419 31.1424 63.2583 34.6587C66.7746 38.175 68.75 42.9442 68.75 47.917V54.167C68.7233 56.0034 68.5863 57.8366 68.3396 59.6566C67.9458 62.542 67.1208 66.4087 65.2083 68.9587C64.8768 69.4007 64.3833 69.6929 63.8363 69.7711C63.2893 69.8492 62.7337 69.7068 62.2917 69.3753C61.8496 69.0438 61.5574 68.5503 61.4793 68.0033C61.4011 67.4563 61.5435 66.9007 61.875 66.4587C63.0875 64.842 63.825 61.9378 64.2125 59.0941C64.4288 57.46 64.5526 55.815 64.5833 54.167V47.917C64.5833 44.0493 63.0469 40.3399 60.312 37.605C57.5771 34.8701 53.8677 33.3337 50 33.3337ZM50 41.667C48.3424 41.667 46.7527 42.3255 45.5806 43.4976C44.4085 44.6697 43.75 46.2594 43.75 47.917V50.0003C43.75 51.9587 43.1167 54.3753 41.9417 56.5795C40.7604 58.7941 38.9229 60.992 36.3479 62.2795C36.1023 62.4119 35.8327 62.4937 35.5549 62.5199C35.2771 62.5461 34.9969 62.5163 34.7309 62.4322C34.4649 62.348 34.2185 62.2113 34.0063 62.0301C33.7941 61.849 33.6205 61.627 33.4957 61.3775C33.3709 61.1279 33.2975 60.8559 33.2799 60.5774C33.2623 60.299 33.3008 60.0198 33.3931 59.7565C33.4854 59.4932 33.6296 59.2511 33.8173 59.0447C34.0049 58.8382 34.2321 58.6715 34.4854 58.5545C36.0771 57.7587 37.3646 56.3107 38.2667 54.617C39.175 52.917 39.5833 51.167 39.5833 50.0003V47.917C39.5833 45.1543 40.6808 42.5048 42.6343 40.5513C44.5878 38.5978 47.2373 37.5003 50 37.5003C52.7627 37.5003 55.4122 38.5978 57.3657 40.5513C59.3192 42.5048 60.4167 45.1543 60.4167 47.917V50.2441C60.4167 56.3357 60.4187 64.5149 53.4167 70.3503C53.2076 70.5332 52.964 70.6725 52.7003 70.7599C52.4367 70.8473 52.1582 70.8811 51.8812 70.8592C51.6043 70.8374 51.3345 70.7604 51.0878 70.6328C50.841 70.5051 50.6223 70.3295 50.4445 70.1161C50.2666 69.9026 50.1333 69.6558 50.0522 69.3901C49.9712 69.1244 49.9441 68.8452 49.9726 68.5688C50.001 68.2925 50.0845 68.0246 50.218 67.781C50.3515 67.5374 50.5324 67.323 50.75 67.1503C56.1542 62.6462 56.25 56.3837 56.25 50.0003V47.917C56.25 46.2594 55.5915 44.6697 54.4194 43.4976C53.2473 42.3255 51.6576 41.667 50 41.667ZM52.0833 48.9587C52.0833 48.4061 51.8638 47.8762 51.4731 47.4855C51.0824 47.0948 50.5525 46.8753 50 46.8753C49.4475 46.8753 48.9176 47.0948 48.5269 47.4855C48.1362 47.8762 47.9167 48.4061 47.9167 48.9587C47.9167 51.4524 47.6646 54.5878 46.7208 57.4149C45.7833 60.2357 44.2333 62.5337 41.7771 63.7628C41.5238 63.8798 41.2966 64.0465 41.1089 64.253C40.9213 64.4595 40.7771 64.7016 40.6847 64.9648C40.5924 65.2281 40.5539 65.5073 40.5716 65.7857C40.5892 66.0642 40.6626 66.3363 40.7874 66.5858C40.9121 66.8354 41.0858 67.0573 41.2979 67.2385C41.5101 67.4197 41.7565 67.5564 42.0226 67.6405C42.2886 67.7246 42.5688 67.7545 42.8466 67.7282C43.1243 67.702 43.394 67.6203 43.6396 67.4878C47.4333 65.592 49.5312 62.1628 50.675 58.7316C51.8146 55.3087 52.0833 51.6732 52.0833 48.9587Z" fill="white"/>
</svg>
